# xmcd
#
# Track frame offsets: 
#        150
#        1184
#        14310
#        31568
#        54145
#
# Disc length: 952 seconds
#
# Revision: 0
# Processed by: cddbd v1.5.2PL0 Copyright (c) Steve Scherf et al.
# Submitted via: ExactAudioCopy v1.3
#
DISCID=2203b605
DTITLE=Boogie Woogie - Bittersweet
DYEAR=1900
DGENRE=
TTITLE0=Boogie Woogie
TTITLE1=Let's Talk About Blues
TTITLE2=Wings
TTITLE3=See The Man
TTITLE4=My Brothers Eyes
EXTD=
EXTT0=
EXTT1=
EXTT2=
EXTT3=
EXTT4=
PLAYORDER=
